<svg xmlns="http://www.w3.org/2000/svg" viewBox="0 0 381.83 383.25"><defs><style>.cls-1{fill:#6c59d6;}</style></defs><g id="Layer_2" data-name="Layer 2"><g id="Layer_7" data-name="Layer 7"><path class="cls-1" d="M376.62,152.82c-17.28-14.33-34.47-28.77-51.78-43a7.14,7.14,0,0,1-3-6.25c.14-17.21.08-34.43.06-51.64,0-8.53-4.38-13-12.84-13-21.71,0-43.41,0-65.12,0a9.2,9.2,0,0,1-6.7-2.38q-18-15.83-36.18-31.37C198.82,3.3,196.3,1.73,193.91,0h-6C178.46,7.86,169,15.68,159.55,23.58c-5.06,4.25-9.88,8.8-15.05,12.9a11,11,0,0,1-6.24,2.34c-21.7.17-43.41.1-65.11.11-9,0-13.22,4.27-13.23,13.32,0,17.34.06,34.67-.1,52a7.38,7.38,0,0,1-2.33,4.92q-26,22-52.26,43.64a13.36,13.36,0,0,0-5.23,11Q.08,267.28,0,370.75c0,8,4.55,12.49,12.56,12.49H369.21c8,0,12.57-4.51,12.57-12.48q0-103.45.05-206.93A13.36,13.36,0,0,0,376.62,152.82Zm-54.44-16.1,30.48,25.4-30.48,23.73ZM190.93,26.09l14.41,12.49H176.53ZM82.38,64.38V61.53h216.9c.06,1.35.17,2.56.17,3.77q0,67.33.06,134.67a6.59,6.59,0,0,1-2.93,5.88c-20.73,16-41.34,32.12-62.09,48.09a10.07,10.07,0,0,1-5.68,2q-38,.2-75.94,0a9.49,9.49,0,0,1-5.37-1.86q-31.38-24.19-62.56-48.69a7.09,7.09,0,0,1-2.46-4.82Q82.29,132.46,82.38,64.38ZM59.73,136.69v49.18L29.19,162.13ZM22.61,185.48l105.11,81.74L22.61,349ZM44.35,360.6c3.58-2.81,6.56-5.17,9.57-7.51q46.67-36.3,93.38-72.52a10,10,0,0,1,5.67-2q38-.19,76,0a8.83,8.83,0,0,1,5.08,1.6q50.29,38.92,100.45,78c.84.66,1.62,1.38,2.86,2.44ZM359,348.79,254.14,267.23,359,185.65Z"></path><path class="cls-1" d="M271.38,140c-7.19-34.77-39-61.61-75-63.56-56.86-3.08-99.64,50.36-84.11,105.07,9.64,34,41.69,59,76.07,59.5,6.92.09,12.05-4.48,12.26-10.91.2-6.24-4.57-11.08-11.27-11.55a60.76,60.76,0,0,1-8.55-.93c-24.28-5.36-40.82-19.76-47.17-43.83-6.27-23.77.29-44.81,19.17-60.66,19.17-16.1,41-18.75,64-8.55,20.56,9.12,39.24,34,31.68,61.53-1.68,6.1-3.08,12.43-8.1,16.94-3,2.71-6.67,4.65-10.57,3.09s-3.14-5.52-3.13-8.88c.06-19.71.15-39.42.15-59.12a11.14,11.14,0,0,0-21.21-5c-.39.74-.75,1.49-1.17,2.31A14.89,14.89,0,0,1,203,115c-15.72-6.2-31.3-3.09-42.81,9.11-12.54,13.29-15.32,29.37-11.47,46.64,3.36,15.06,11.68,26.75,26.52,32.49,12.25,4.73,23.73,2.27,34.26-5.6.91,1,1.72,1.93,2.56,2.83a25.37,25.37,0,0,0,20.7,8.54c13.93-.7,24.29-7.49,30.75-19.47C271.8,174.11,275,157.43,271.38,140Zm-71.83,35.2c-6,10-16.68,10.51-24,1.36-4.21-5.27-5.84-11.45-6-19.53A24.83,24.83,0,0,1,176,139.9c8.26-8.86,20.41-7.18,25.35,3.83C206.17,154.39,205.59,165.15,199.55,175.2Z"></path></g></g></svg>