<svg xmlns="http://www.w3.org/2000/svg" id="Layer_1" data-name="Layer 1" viewBox="0 0 40 40"><defs><style>.cls-1{fill:#6c59d6;}</style></defs><path class="cls-1" d="M34.17,17.15a.48.48,0,0,1-.38-.56,2.41,2.41,0,0,0-.64-2,2.34,2.34,0,0,0,.64-1.67c0-1.82,0-3.63,0-5.45A2.15,2.15,0,0,0,31.47,5.2H2.34A2.15,2.15,0,0,0,0,7.55c0,1.65,0,3.31,0,5a2.57,2.57,0,0,0,.63,2.05A2.38,2.38,0,0,0,0,16.44c0,1.72,0,3.43,0,5.15a2.42,2.42,0,0,0,.65,1.79,2.52,2.52,0,0,0-.65,2c0,1.68,0,3.37,0,5a2.8,2.8,0,0,0,.08.77,2.16,2.16,0,0,0,2.27,1.61c7.44,0,14.87,0,22.3,0a1.42,1.42,0,0,1,.78.25,9.15,9.15,0,1,0,8.73-15.9ZM1.24,7.59c0-.82.35-1.16,1.16-1.16h29c.85,0,1.17.33,1.17,1.18,0,1.73,0,3.46,0,5.18,0,.87-.29,1.16-1.17,1.16H2.4c-.85,0-1.16-.31-1.16-1.18Zm0,8.81c0-.86.31-1.16,1.17-1.16H31.28c1,0,1.33.33,1.22,1.42a9.22,9.22,0,0,0-4.37.28,9,9,0,0,0-5.79,5.41.54.54,0,0,1-.59.41H2.44c-.88,0-1.2-.32-1.2-1.2Zm22,15.12H2.5c-1,0-1.26-.28-1.26-1.26v-5.1c0-.82.31-1.13,1.12-1.13H21.41l.43,0a9.31,9.31,0,0,0,2,7.46Zm7.6,2a7.9,7.9,0,1,1,7.87-7.92A7.94,7.94,0,0,1,30.88,33.56Z"></path><path class="cls-1" d="M14.18,9.1a.65.65,0,0,1-.67.6c-.1,0-.2,0-.3,0H8.85c-1.47,0-2.94,0-4.41,0a1.56,1.56,0,0,1-.43,0A.58.58,0,0,1,3.55,9a.56.56,0,0,1,.5-.56,3.1,3.1,0,0,1,.43,0h9A.65.65,0,0,1,14.18,9.1Z"></path><path class="cls-1" d="M14.18,11.33c0,.37-.28.62-.73.62s-.89,0-1.34,0H4.42a1.7,1.7,0,0,1-.39,0,.58.58,0,0,1-.48-.62.56.56,0,0,1,.52-.59,2.54,2.54,0,0,1,.39,0h9C13.9,10.73,14.18,11,14.18,11.33Z"></path><path class="cls-1" d="M23.14,8.13A2.07,2.07,0,0,0,21,10.2a2.08,2.08,0,0,0,4.15,0A2.05,2.05,0,0,0,23.14,8.13ZM23.09,11a.79.79,0,0,1-.79-.83.84.84,0,0,1,.83-.82.85.85,0,0,1,.82.83A.81.81,0,0,1,23.09,11Z"></path><path class="cls-1" d="M28.19,8.13A2.05,2.05,0,0,0,26.1,10.2a2.08,2.08,0,1,0,2.09-2.07Zm0,2.9a.82.82,0,0,1-.83-.81.83.83,0,0,1,.84-.85.83.83,0,0,1,0,1.66Z"></path><path class="cls-1" d="M18.09,8.13A2.06,2.06,0,0,0,16,10.19a2.08,2.08,0,1,0,4.16,0A2.07,2.07,0,0,0,18.09,8.13ZM18,11a.81.81,0,0,1-.79-.84.85.85,0,0,1,.84-.81.84.84,0,0,1,.81.88A.8.8,0,0,1,18,11Z"></path><path class="cls-1" d="M35.53,25.47c-.39.11-.67-.12-.8-.62a4,4,0,0,0-4.14-3.2A3.59,3.59,0,0,0,27.85,23l.59-.14a.63.63,0,0,1,.79.42.61.61,0,0,1-.45.77q-1.12.32-2.25.57c-.42.1-.72-.15-.77-.61-.08-.71-.15-1.43-.21-2.14a.64.64,0,0,1,.52-.77.63.63,0,0,1,.72.58,2.62,2.62,0,0,1,0,.31,17.11,17.11,0,0,1,1.8-1.15A5.26,5.26,0,0,1,36,24.57C36.05,25.05,35.91,25.37,35.53,25.47Z"></path><path class="cls-1" d="M35.67,30.11c-.39.08-.67-.14-.77-.61,0-.11,0-.23,0-.34L34.69,29a1.63,1.63,0,0,1-.25.45A5.28,5.28,0,0,1,25.7,27c-.13-.52,0-.85.37-.95s.69.09.84.63a4,4,0,0,0,6.56,2c.09-.08.2-.15.3-.23a.39.39,0,0,0-.08-.1,5.45,5.45,0,0,1-.58.14.57.57,0,0,1-.72-.44.55.55,0,0,1,.37-.73c.78-.26,1.56-.5,2.35-.72a.61.61,0,0,1,.71.58c.11.7.21,1.4.32,2.09C36.2,29.72,36,30,35.67,30.11Z"></path><path class="cls-1" d="M14.17,20.08a.6.6,0,0,1-.61.65c-.47,0-1,0-1.42,0H4.49a2.07,2.07,0,0,1-.43,0,.62.62,0,0,1,0-1.22,1.7,1.7,0,0,1,.39,0h9.08A.61.61,0,0,1,14.17,20.08Z"></path><path class="cls-1" d="M14.17,17.88a.58.58,0,0,1-.57.58c-.35,0-.69,0-1,0H4.48a2.08,2.08,0,0,1-.43,0,.55.55,0,0,1-.5-.55A.57.57,0,0,1,4,17.26a1.56,1.56,0,0,1,.43,0h8.81a2,2,0,0,1,.35,0A.6.6,0,0,1,14.17,17.88Z"></path><path class="cls-1" d="M18.08,16.9A2.09,2.09,0,0,0,16,19a2.07,2.07,0,0,0,2.08,2.08,2.08,2.08,0,0,0,0-4.16Zm0,2.92a.84.84,0,0,1-.82-.87.83.83,0,0,1,1.65.05A.83.83,0,0,1,18.06,19.82Z"></path><path class="cls-1" d="M13.47,29.51H10.23c-2,0-3.95,0-5.92,0a.94.94,0,0,1-.66-.29c-.32-.4,0-.92.57-.93H8.89q2.27,0,4.53,0c.38,0,.66.13.74.52S14,29.51,13.47,29.51Z"></path><path class="cls-1" d="M14.17,26.62a.6.6,0,0,1-.62.64H4.26c-.47,0-.75-.26-.71-.67A.57.57,0,0,1,4.14,26c.33,0,.66,0,1,0h8.43A.58.58,0,0,1,14.17,26.62Z"></path><path class="cls-1" d="M18.07,25.69A2.06,2.06,0,0,0,16,27.77a2.08,2.08,0,1,0,2.08-2.08Zm0,2.9a.82.82,0,0,1-.81-.83.85.85,0,0,1,.87-.83.83.83,0,0,1,.78.87A.81.81,0,0,1,18.05,28.59Z"></path></svg>