<svg xmlns="http://www.w3.org/2000/svg" viewBox="0 0 500 500"><defs><style>.a8c06274-c529-4391-8669-0d84cef5911f{fill:#6c59d6;}</style></defs><g id="f5a1879b-0f74-4a4d-ad2b-478f718450a6" data-name="Layer 2"><g id="f9bf63b0-b193-40ba-85a0-aaa1d879c351" data-name="Layer 1"><path class="a8c06274-c529-4391-8669-0d84cef5911f" d="M151,429.16V500h-14.2V429.16Z"></path><path class="a8c06274-c529-4391-8669-0d84cef5911f" d="M201.49,500l-15.63-27.6h-6.69V500H165V429.16h26.59a31,31,0,0,1,14,2.9,20.21,20.21,0,0,1,8.68,7.81,22,22,0,0,1-1.17,23.65Q209,469.15,201,471.28l17,28.72Zm-22.32-38.26H191c3.86,0,6.73-.93,8.63-2.79a10.4,10.4,0,0,0,2.84-7.76q0-4.87-2.84-7.56c-1.9-1.8-4.77-2.69-8.63-2.69H179.17Z"></path><path class="a8c06274-c529-4391-8669-0d84cef5911f" d="M273.44,486.5H245.23L240.56,500H225.64l25.48-70.94h16.54L293.13,500h-15Zm-3.85-11.36L259.34,445.5l-10.25,29.64Z"></path><path class="a8c06274-c529-4391-8669-0d84cef5911f" d="M363.26,500H349.05l-32.17-48.61V500H302.67V429.06h14.21l32.17,48.72V429.06h14.21Z"></path><path class="a8c06274-c529-4391-8669-0d84cef5911f" d="M482.27,282.32a51.87,51.87,0,0,1,4.78,3.65c13.36,13,14,29.51,12.22,46.45v38.35a8.33,8.33,0,0,1-8.33,8.34h0a8.33,8.33,0,0,1-8.33-8.34V318.1c-.35-17-10.86-27.47-27.85-27.47q-87.6,0-175.18,0a49.55,49.55,0,0,1-5.17-.07c-4.9-.45-8.31-4.05-8.29-8.6s3.44-8.07,8.39-8.5c1.7-.16,3.44-.06,5.15-.06H453.11c19.3,0,29.45-10.07,29.49-29.3q.07-30.71,0-61.44c-.06-18.5-10.39-28.72-28.89-28.72q-203.62,0-407.2,0c-18.83,0-29.06,10.18-29.11,29.1q0,30.74,0,61.44c.05,18.8,10.34,28.92,29.31,28.92h183.2a32.37,32.37,0,0,1,5.75.14c4.47.83,7.25,3.59,7.35,8.21.14,4.89-2.7,7.83-7.41,8.72a33.3,33.3,0,0,1-5.74.15H46.63c-18.92,0-29.18,10.11-29.23,29,0,8.21,0,35.5,0,51A8.54,8.54,0,0,1,9,379.1a8.84,8.84,0,0,1-8.78-8.91c0-14.82,0-40.33-.2-47.56-.3-16,3.8-29.88,17-40.3a14.63,14.63,0,0,0-1.5-1.89C5.2,271.48.2,260.1.18,246.53c0-21.83,0-43.64,0-65.46,0-14.52,5.67-26.34,17.17-35.86C3,134.05-.43,119,0,102.1c.51-18.17.1-36.37.13-54.56C.2,22.1,11.05,7.73,35.48.69c.33-.09.58-.47.88-.69H86.88C90.78,2.84,94,6.08,92,11.43s-6.35,5.9-11.26,5.82c-11.47-.11-23,0-34.45,0-18.51,0-28.85,10.22-28.93,28.68q-.07,30.72,0,61.43c.05,19.26,10.17,29.35,29.42,29.35H453.31c19.13,0,29.25-10.16,29.29-29.48,0-19.88,0-39.78,0-59.68,0-20.49-9.81-30.3-30.2-30.3q-161.93,0-323.8,0c-4.93,0-9.35-.55-11.28-5.82S118.59,2.81,122.51,0H463.66c2,.68,3.9,1.38,5.86,2,17.14,5.4,29.38,20,29.92,38.1.7,24.09.52,48.23.12,72.34-.22,13.3-3.69,19.14-16.54,33.19,13.8,10.82,17.4,25.61,16.94,42.37-.49,17.6-.44,35.24,0,52.84C500.36,257.05,496.24,271.1,482.27,282.32Z"></path><path class="a8c06274-c529-4391-8669-0d84cef5911f" d="M325.76,175.77a37.32,37.32,0,1,0,37.3,37.68A37.27,37.27,0,0,0,325.76,175.77Zm.07,57.38a20.08,20.08,0,1,1,20-20.1A20,20,0,0,1,325.83,233.15Z"></path><path class="a8c06274-c529-4391-8669-0d84cef5911f" d="M423.62,175.77a37.32,37.32,0,1,0,37.09,37.32A37.25,37.25,0,0,0,423.62,175.77Zm-.45,57.38a20.08,20.08,0,1,1,20.29-19.78A20,20,0,0,1,423.17,233.15Z"></path><path class="a8c06274-c529-4391-8669-0d84cef5911f" d="M325.8,312.45a37.3,37.3,0,0,0-37.24,37.2V350a37.25,37.25,0,0,0,74.5.17V350A37.27,37.27,0,0,0,325.8,312.45Zm.26,17.24A20.09,20.09,0,1,1,305.81,350c0-.15,0-.32,0-.48A20,20,0,0,1,326.06,329.69Z"></path><path class="a8c06274-c529-4391-8669-0d84cef5911f" d="M423.55,312.45a37.28,37.28,0,0,0-37.34,37.08V350a37.25,37.25,0,0,0,74.5,0v-.29A37.3,37.3,0,0,0,423.55,312.45Zm.05,17.24a20,20,0,0,1,19.89,20.21V350a20,20,0,0,1-40,0c0-.12,0-.25,0-.37A20,20,0,0,1,423.6,329.69Z"></path><path class="a8c06274-c529-4391-8669-0d84cef5911f" d="M196.44,193.28c.14,5.27-3.55,8.82-9.7,8.85q-24,.15-48.12,0c-6.14,0-9.83-3.6-9.65-8.88.16-5,3.77-8.21,9.7-8.28,8.2-.1,16.41,0,24.62,0,7.83,0,15.67-.09,23.49,0C192.69,185.05,196.28,188.28,196.44,193.28Z"></path><path class="a8c06274-c529-4391-8669-0d84cef5911f" d="M196.44,233.48c.14,5.29-3.55,8.82-9.7,8.86q-24,.14-48.12,0c-6.14,0-9.83-3.61-9.65-8.9.16-5,3.77-8.2,9.7-8.27,8.2-.09,16.41,0,24.62,0,7.83,0,15.67-.1,23.49,0C192.69,225.24,196.31,228.48,196.44,233.48Z"></path><path class="a8c06274-c529-4391-8669-0d84cef5911f" d="M196.44,330c.15,5.28-3.53,8.84-9.67,8.88q-24.06.15-48.13,0c-6.15,0-9.83-3.59-9.67-8.86.15-5,3.75-8.23,9.66-8.3,8-.12,16,0,24.06,0s16-.08,24.07,0C192.68,321.74,196.27,324.93,196.44,330Z"></path><path class="a8c06274-c529-4391-8669-0d84cef5911f" d="M196.44,370.22c.14,5.45-3.67,8.77-10.3,8.84-7.83.06-15.67,0-23.5,0s-15.66.05-23.48,0c-6.34-.07-10-3.19-10.19-8.38-.14-5.45,3.65-8.8,10.29-8.82q23.51-.08,47,0C192.61,361.88,196.32,365,196.44,370.22Z"></path><path class="a8c06274-c529-4391-8669-0d84cef5911f" d="M105.71,193.49c0,5.23-3.7,8.61-9.93,8.64q-22.61.1-45.25,0c-6.23,0-10-3.35-10-8.55s3.7-8.56,9.92-8.63c7.65-.1,15.28,0,22.91,0,7.46,0,14.9-.06,22.36,0C101.91,185,105.67,188.3,105.71,193.49Z"></path><path class="a8c06274-c529-4391-8669-0d84cef5911f" d="M105.72,233.77c0,5.18-3.8,8.51-10,8.58-7.65.08-15.29,0-22.94,0-7.43,0-14.87.06-22.33,0-6.21-.07-10-3.42-10-8.61s3.78-8.54,10-8.57q22.64-.12,45.26,0C102,225.2,105.72,228.58,105.72,233.77Z"></path><path class="a8c06274-c529-4391-8669-0d84cef5911f" d="M105.68,330c.16,5.27-3.54,8.81-9.67,8.85q-22.94.15-45.84,0c-6.13,0-9.81-3.6-9.64-8.9.15-5,3.75-8.19,9.68-8.26,7.82-.12,15.65,0,23.48,0,7.45,0,14.9-.08,22.34,0C101.94,321.74,105.54,325,105.68,330Z"></path><path class="a8c06274-c529-4391-8669-0d84cef5911f" d="M105.68,370.16c.18,5.27-3.52,8.83-9.66,8.88q-11.46.06-22.91.07T50.19,379c-6.15-.05-9.83-3.58-9.66-8.87.14-5,3.74-8.23,9.65-8.3,7.64-.11,15.29,0,22.93,0s15.26-.08,22.91,0C101.92,361.94,105.53,365.16,105.68,370.16Z"></path><path class="a8c06274-c529-4391-8669-0d84cef5911f" d="M326.66,39.09a37.31,37.31,0,1,0,36.4,38A37.19,37.19,0,0,0,326.66,39.09Zm-1,57.36a20.08,20.08,0,1,1,20.2-19.9A20,20,0,0,1,325.63,96.45Z"></path><path class="a8c06274-c529-4391-8669-0d84cef5911f" d="M424.1,39.06a37.33,37.33,0,1,0,36.6,37.82A37.27,37.27,0,0,0,424.1,39.06Zm-.74,57.39a20.08,20.08,0,1,1,20.13-20A20,20,0,0,1,423.36,96.45Z"></path><path class="a8c06274-c529-4391-8669-0d84cef5911f" d="M196.44,57c-.09,5.19-3.82,8.38-10.11,8.45-3.65,0-7.29,0-10.94,0q-6.57,0-13.12,0l-7.36,0c-5.38,0-10.75,0-16.14,0-6.18-.08-9.9-3.49-9.81-8.75.08-5,3.7-8.4,9.55-8.43q24.06-.14,48.12,0C192.82,48.3,196.55,51.76,196.44,57Z"></path><path class="a8c06274-c529-4391-8669-0d84cef5911f" d="M196.44,97.3c-.15,5-3.76,8.31-9.65,8.34q-24.06.14-48.13,0c-6.15,0-9.83-3.56-9.7-8.84.14-5,3.75-8.24,9.64-8.32,8-.11,16.05,0,24.06,0s16.06-.08,24.07,0C192.9,88.56,196.59,92,196.44,97.3Z"></path><path class="a8c06274-c529-4391-8669-0d84cef5911f" d="M105.68,56.56c.17,5.28-3.52,8.79-9.65,8.89-7.82.1-15.67,0-23.49,0-7.45,0-14.9.09-22.35,0-6.14-.1-9.83-3.6-9.66-8.87.13-5,3.74-8.28,9.65-8.31q22.91-.14,45.84,0C101.92,48.3,105.53,51.54,105.68,56.56Z"></path><path class="a8c06274-c529-4391-8669-0d84cef5911f" d="M105.68,96.77c.17,5.28-3.52,8.84-9.65,8.87q-22.92.14-45.84,0c-6.15,0-9.83-3.58-9.66-8.86.13-5,3.74-8.22,9.65-8.3,7.62-.11,15.27,0,22.91,0s15.28-.08,22.91,0C101.92,88.56,105.53,91.75,105.68,96.77Z"></path></g></g></svg>